<svg width="72" height="72" viewBox="0 0 72 72" fill="none" xmlns="http://www.w3.org/2000/svg">
<circle cx="36" cy="36" r="36" fill="#FBC343"/>
<g clip-path="url(#clip0)">
<path d="M59.2895 31.9592C55.4058 25.4879 49.6944 20.1558 42.9329 16.7751L38.4926 14.555L39.9971 13.0505C40.5739 12.4738 40.5739 11.5393 39.9971 10.9625C39.4204 10.3858 38.4859 10.3858 37.9092 10.9625L37.4766 11.3952V8.85657C37.4766 8.04042 36.8161 7.38 36 7.38C35.1838 7.38 34.5234 8.04042 34.5234 8.85657V11.3952L34.0908 10.9625C33.5141 10.3858 32.5796 10.3858 32.0028 10.9625C31.4261 11.5393 31.4261 12.4738 32.0028 13.0505L33.5074 14.555L29.067 16.7751C22.3055 20.1558 16.5942 25.4879 12.7105 31.9592C12.1306 32.9254 12.8731 34.155 14.0001 34.155H28.6172V29.7253C28.6172 28.9092 29.2776 28.2488 30.0937 28.2488C30.9099 28.2488 31.5703 28.9092 31.5703 29.7253V34.155H34.5234V26.7722C34.5234 25.956 35.1838 25.2956 36 25.2956C36.8161 25.2956 37.4766 25.956 37.4766 26.7722V34.155H40.4297V29.7253C40.4297 28.9092 41.0901 28.2488 41.9062 28.2488C42.7224 28.2488 43.3828 28.9092 43.3828 29.7253V34.155H57.9999C59.1268 34.155 59.8694 32.9254 59.2895 31.9592Z" fill="white"/>
<path d="M56.6719 54.8269H55.1953V37.1081H16.8047V54.8269H15.3281C14.512 54.8269 13.8516 55.4873 13.8516 56.3034C13.8516 57.1196 14.512 57.78 15.3281 57.78H56.6719C57.488 57.78 58.1484 57.1196 58.1484 56.3034C58.1484 55.4873 57.488 54.8269 56.6719 54.8269ZM43.3895 54.8269H40.4167V47.4441C40.4167 44.9929 38.438 43.0144 35.987 43.0144C33.5654 43.0144 31.577 44.9929 31.577 47.4441V54.8269H28.6042V47.4441C28.6042 43.3687 31.9412 40.0612 35.987 40.0612C40.0623 40.0612 43.3895 43.3687 43.3895 47.4441V54.8269Z" fill="white"/>
</g>
<defs>
<clipPath id="clip0">
<rect width="50.4" height="50.4" fill="white" transform="translate(10.8 7.38)"/>
</clipPath>
</defs>
</svg>
