<svg width="40" height="40" viewBox="0 0 40 40" fill="none" xmlns="http://www.w3.org/2000/svg">
<path d="M38.4838 19.5073C35.4014 14.3713 30.8686 10.1395 25.5024 7.45641L21.9783 5.69445L23.1724 4.50039C23.6301 4.04266 23.6301 3.30102 23.1724 2.84328C22.7146 2.38555 21.973 2.38555 21.5152 2.84328L21.1719 3.18664V1.17188C21.1719 0.524141 20.6477 0 20 0C19.3523 0 18.8281 0.524141 18.8281 1.17188V3.18664L18.4848 2.84328C18.027 2.38555 17.2854 2.38555 16.8277 2.84328C16.3699 3.30102 16.3699 4.04266 16.8277 4.50039L18.0217 5.69445L14.4977 7.45641C9.13134 10.1395 4.5986 14.3713 1.51626 19.5073C1.05602 20.2741 1.64532 21.25 2.53977 21.25H14.1406V17.7344C14.1406 17.0866 14.6648 16.5625 15.3125 16.5625C15.9602 16.5625 16.4844 17.0866 16.4844 17.7344V21.25H18.8281V15.3906C18.8281 14.7429 19.3523 14.2188 20 14.2188C20.6477 14.2188 21.1719 14.7429 21.1719 15.3906V21.25H23.5156V17.7344C23.5156 17.0866 24.0398 16.5625 24.6875 16.5625C25.3352 16.5625 25.8594 17.0866 25.8594 17.7344V21.25H37.4602C38.3546 21.25 38.944 20.2741 38.4838 19.5073Z" fill="#FBC343"/>
<path d="M36.4062 37.6562H35.2344V23.5938H4.76562V37.6562H3.59375C2.94602 37.6562 2.42188 38.1804 2.42188 38.8281C2.42188 39.4759 2.94602 40 3.59375 40H36.4062C37.054 40 37.5781 39.4759 37.5781 38.8281C37.5781 38.1804 37.054 37.6562 36.4062 37.6562ZM25.8647 37.6562H23.5053V31.7969C23.5053 29.8515 21.9349 28.2812 19.9897 28.2812C18.0678 28.2812 16.4897 29.8515 16.4897 31.7969V37.6562H14.1303V31.7969C14.1303 28.5625 16.7787 25.9375 19.9897 25.9375C23.2241 25.9375 25.8647 28.5625 25.8647 31.7969V37.6562Z" fill="#FBC343"/>
</svg>
