<svg width="639" height="454" viewBox="0 0 639 454" fill="none" xmlns="http://www.w3.org/2000/svg">
<path fill-rule="evenodd" clip-rule="evenodd" d="M630.172 116.411C629.739 116.096 628.711 115.984 628.233 115.889C626.245 115.498 624.198 115.327 622.171 115.327C615.924 115.337 609.574 115.95 603.43 117.012C599.528 117.685 594.812 119.953 590.932 118.721C584.171 116.576 577.338 116.681 570.924 119.745C565.059 122.546 560.608 127.866 558.01 133.615C557.617 134.483 556.027 137.677 555.577 139.83C555.385 140.271 555.2 140.713 555.033 141.163C554.56 142.441 554.136 143.74 553.742 145.043C553.573 145.598 553.15 146.825 553.652 147.062C552.849 148.546 552.136 150.074 551.543 151.652C549.817 156.243 547.93 161.278 547.323 166.143C547.099 167.944 547.09 169.756 547.299 171.561C547.402 172.453 547.36 174.247 547.964 174.926C549.248 176.365 549.907 174.35 549.762 173.39C548.658 166.075 550.791 159.206 553.319 152.33C554.955 147.885 557.642 143.817 560.652 140.133C563.087 137.151 565.7 134.803 569.039 132.826C573.122 130.408 577.488 128.454 581.813 126.494C584.658 125.204 587.506 123.949 590.43 122.837C591.08 122.59 592.103 121.955 592.824 121.953C594.348 121.948 596.51 123.073 597.982 123.491C602.826 124.869 607.731 126.632 612.737 127.335C615.949 127.787 618.957 127.278 621.959 126.209C622.266 126.1 622.781 125.819 623.412 125.418C625.641 124.56 627.75 123.481 629.587 121.923C630.644 121.026 631.605 119.867 632.48 118.805C632.742 118.488 632.858 118.124 632.862 117.779C633.06 117.675 633.192 117.554 633.222 117.412C633.44 116.368 631.448 116.349 630.172 116.411Z" fill="#89C5CC"/>
<path fill-rule="evenodd" clip-rule="evenodd" d="M122.609 203.481C121.383 204.473 120.181 205.487 119.008 206.542C118.114 207.346 116.532 208.308 116.211 209.526C115.877 210.793 116.93 211.978 117.762 212.743C122.162 216.79 127.116 219.527 133.212 219.982C142.599 220.683 150.768 218.286 158.913 213.569C164.634 210.256 168.423 205.355 169.251 198.738C176.064 201.569 182.653 205.472 188.253 210.262C191.016 212.626 193.396 215.244 195.597 218.147C197.007 220.007 198.37 221.896 199.636 223.858C200.185 224.71 200.745 226.222 201.653 226.713C202.719 227.289 204.008 226.385 203.956 225.2C203.911 224.214 202.846 223.069 202.347 222.263C201.521 220.924 200.681 219.592 199.796 218.291C198.365 216.181 196.886 214.103 195.273 212.129C191.648 207.695 187.036 204.033 182.254 200.909C173.082 194.917 163.015 191.142 151.854 190.822C144.992 190.626 139.219 192.97 133.35 196.472C129.696 198.652 125.924 200.796 122.609 203.481Z" fill="#DDE3E9"/>
<path fill-rule="evenodd" clip-rule="evenodd" d="M211.63 174.497C204.478 167.133 197.301 159.86 189.311 153.374C184.602 149.553 179.64 146.077 174.78 142.454C175.34 142.946 175.89 143.451 176.427 143.969C174.91 142.939 172.924 142.357 171.316 141.403C169.522 140.34 167.807 139.124 166.125 137.898C162.841 135.505 159.607 133.067 156.232 130.8C152.471 128.273 148.574 125.939 144.75 123.507C141.504 121.444 138.219 119.186 134.746 117.499C132.854 116.58 130.957 115.49 129.057 114.531C128.421 114.211 121.967 110.136 121.984 110.123C122.34 109.855 125.588 111.38 126.09 111.586C127.557 112.185 128.96 112.901 130.37 113.616C129.596 112.089 128.983 110.484 128.65 108.796C128.547 108.274 127.721 104.48 128.144 104.162C128.355 104.002 130.414 110.792 130.519 111.444C130.605 111.975 130.592 112.738 130.766 113.24C131.046 114.051 131.032 113.806 131.649 114.263C132.78 115.101 134.282 115.624 135.507 116.323C136.167 116.692 138.211 118.154 139.443 118.57C143.168 120.38 146.945 123.164 150.485 125.475C149.556 123.729 148.849 121.903 148.333 119.99C148.211 119.536 146.887 115.461 147.209 115.219C147.57 114.946 150.091 121.171 150.24 121.76C150.518 122.854 150.575 124.072 150.923 125.137C151.304 126.306 152.493 126.72 153.565 127.402C157.51 129.908 161.32 132.571 165.066 135.357C169.153 128.087 164.44 119.309 160.469 113.21C157.605 108.814 153.751 105.045 149.681 101.755C144.25 97.3638 138.036 93.856 131.83 90.6472C124.598 86.9088 116.781 84.5917 108.655 83.5221C104.405 82.9617 100.057 82.9779 95.7644 83.1574C93.6673 83.2443 91.6543 83.5221 89.6446 84.2067C88.7388 84.5153 87.8634 84.9044 87.0103 85.3397C86.3621 85.6702 84.7942 86.0195 84.4215 86.5124C81.3537 90.5059 79.7842 94.4847 80.0239 99.5022C80.2505 104.252 81.7506 109.004 83.7863 113.241C86.0535 117.958 88.9693 122.24 92.7828 125.833C95.6923 128.575 98.9451 130.961 102.177 133.317C113.67 141.693 128.241 148.978 143.126 147.106C147.945 146.501 152.528 144.815 156.81 142.525C157.82 141.986 158.823 141.44 159.775 140.803C160.418 140.374 162.135 138.438 162.78 138.368C163.666 138.272 165.573 140.072 166.404 140.62C172.718 144.789 178.866 149.182 184.885 153.753C191.29 158.616 197.379 163.811 203.29 169.249C205.804 171.562 208.302 173.881 210.743 176.272C211.311 176.828 212.701 178.877 213.731 178.969C214.383 179.029 214.822 178.471 214.73 177.869C214.568 176.82 212.362 175.252 211.63 174.497Z" fill="#C1DEE2"/>
<path fill-rule="evenodd" clip-rule="evenodd" d="M622.663 145.914C619.894 145.309 616.835 145.355 614.013 145.404C598.879 145.611 584.018 152.776 574.347 164.224C566.113 173.97 563.849 186.087 562.222 198.336C562.061 199.552 561.992 200.761 561.901 201.98C561.882 202.241 561.853 202.474 561.821 202.694C561.182 203.266 560.846 203.933 561.225 204.666C559.816 207.749 558.624 210.911 557.6 214.173C554.589 223.773 551.528 233.555 553.413 243.649C553.854 238.094 554.782 232.414 555.891 226.95C555.954 226.636 556.023 226.325 556.094 226.015C556.103 225.982 556.109 225.949 556.116 225.917C556.509 224.244 557.019 222.621 557.639 221.023C557.646 221.005 557.652 220.988 557.659 220.971C557.741 220.761 557.828 220.552 557.914 220.343C558.092 219.91 558.274 219.478 558.468 219.048C558.533 218.901 558.596 218.753 558.657 218.605C559.56 216.391 559.941 213.896 560.751 211.606C560.944 211.085 561.146 210.566 561.358 210.049C561.371 210.019 561.383 209.989 561.396 209.959C561.97 208.57 562.602 207.198 563.272 205.84C563.636 205.566 563.83 204.888 564.145 204.272C564.209 204.15 564.716 203.34 564.867 202.873C565.262 202.11 565.654 201.348 566.052 200.586C566.04 200.591 566.028 200.595 566.016 200.6C566.413 199.868 566.812 199.14 567.207 198.415C567.294 198.256 567.382 198.097 567.47 197.937C567.612 197.683 567.754 197.428 567.895 197.175C569.221 194.803 570.626 192.478 572.086 190.182C572.607 189.363 573.852 188.188 574.09 187.268C574.099 187.233 574.101 187.202 574.107 187.169C577.274 182.72 580.92 178.617 585.293 175.366C584.765 175.938 583.641 177.876 583.344 178.26C582.435 179.436 581.448 180.53 580.458 181.637C578.683 183.622 576.952 185.668 575.413 187.833C572.598 191.791 570.17 195.957 567.874 200.207C567.853 200.231 567.829 200.255 567.808 200.281C566.654 201.703 565.928 203.852 565.098 205.479C568.384 203.957 572.019 202.965 575.391 201.613C578.755 200.266 582.026 198.765 585.185 197.004C589.383 194.661 593.739 192.018 597.706 189.026C602.251 186.206 606.072 182.325 609.444 178.252C613.433 173.432 617.09 168.571 619.351 162.72C620.462 159.845 621.336 156.846 621.854 153.813C621.876 153.681 621.905 153.537 621.937 153.389C622.467 152.341 622.94 151.27 623.338 150.174C623.969 148.436 625.461 146.524 622.663 145.914Z" fill="#69A1AC"/>
<path fill-rule="evenodd" clip-rule="evenodd" d="M153.255 166.273C152.388 165.334 151.413 164.486 150.269 163.881C149.979 163.728 147.824 162.705 147.684 162.929C147.357 163.452 152.995 165.973 153.255 166.273ZM163.474 159.996C163.467 160.036 164.214 161.304 164.418 161.694C164.851 162.523 165.25 163.368 165.626 164.215C165.07 162.719 164.497 161.332 163.474 159.996ZM111.215 170.318C110.496 170.55 109.63 169.636 110.564 169.411C111.319 169.231 111.282 169.188 111.621 168.579C111.897 168.085 112.066 167.483 112.308 166.965C112.821 165.865 113.402 164.816 114.116 163.833C115.646 161.726 117.51 159.911 119.6 158.381C123.248 155.712 127.339 153.272 131.678 152.046C138.578 150.097 146.43 149.977 153.341 151.328C157.621 152.165 161.531 153.62 164.373 157.066C165.793 158.788 166.909 160.805 167.396 163.026C167.523 163.607 167.499 164.253 167.658 164.821C167.903 165.696 167.795 165.463 168.818 165.633C169.934 165.819 171.049 166.008 172.164 166.201C175.084 166.706 178.021 167.242 180.866 168.062C181.802 168.331 182.717 168.661 183.612 169.044C184.289 169.333 186.983 170.242 187.31 171.12C187.855 172.583 186.029 171.92 185.462 171.601C184.965 171.323 184.455 171.062 183.937 170.822C182.634 170.22 181.276 169.753 179.887 169.382C178.386 168.98 176.855 168.681 175.329 168.38C173.907 168.101 172.479 167.847 171.049 167.603C170.255 167.468 169.46 167.337 168.665 167.206C168.393 167.16 167.915 166.926 167.951 167.279C166.279 166.957 164.472 167.003 162.77 166.914C160.685 166.805 158.592 166.716 156.5 166.781C154.991 166.828 153.481 166.927 151.979 167.13C151.102 167.249 150.239 167.422 149.378 167.641C148.906 167.762 147.041 168.018 146.784 168.43C146.894 168.253 148.952 168.425 149.214 168.414C150.261 168.375 151.3 168.271 152.344 168.155C154.281 167.938 156.218 167.826 158.161 167.842C158.153 168.183 156.826 168.79 156.502 169.016C155.776 169.524 155.08 170.076 154.431 170.683C153.289 171.751 151.919 173.074 151.129 174.34C151.362 173.966 152.511 173.481 152.919 173.196C153.573 172.74 154.214 172.253 154.819 171.732C155.378 171.251 155.9 170.731 156.414 170.201C156.927 169.671 157.623 168.567 158.298 168.214C158.339 168.192 158.633 168.424 158.799 168.345C158.968 168.266 159.178 167.868 159.22 167.851C159.848 167.609 161.04 167.911 161.7 167.942C163.411 168.02 165.122 168.124 166.831 168.218C167.362 168.247 167.812 168.126 168.012 168.517C168.225 168.934 167.834 170.03 167.723 170.484C167.311 172.17 166.579 173.681 165.426 174.988C163.267 177.435 160.604 179.066 157.596 180.157C146.076 184.337 133.82 186.011 122.304 181.663C117.536 179.863 110.356 176.646 111.215 170.318Z" fill="#89C5CC"/>
<g opacity="0.6">
<path opacity="0.6" fill-rule="evenodd" clip-rule="evenodd" d="M638.688 367.222C646.526 420.276 456.46 454.881 292.866 430.731C129.272 406.581 54.2228 312.272 132.287 262.021C210.352 211.769 630.851 314.168 638.688 367.222Z" fill="#DDE3E9"/>
</g>
<path d="M304.311 19.4919H188.172C184.583 19.4919 181.674 22.4009 181.674 25.9893V258.268C181.674 261.857 184.583 264.766 188.172 264.766H304.311C307.9 264.766 310.808 261.857 310.808 258.268V25.9893C310.808 22.4009 307.9 19.4919 304.311 19.4919Z" fill="#F2F2F2"/>
<path fill-rule="evenodd" clip-rule="evenodd" d="M245.835 249.334C252.563 249.334 258.018 243.88 258.018 237.152C258.018 230.424 252.563 224.969 245.835 224.969C239.107 224.969 233.653 230.424 233.653 237.152C233.653 243.88 239.107 249.334 245.835 249.334Z" fill="white"/>
<path fill-rule="evenodd" clip-rule="evenodd" d="M235.277 35.7352C236.175 35.7352 236.901 35.008 236.901 34.1109C236.901 33.2138 236.175 32.4866 235.277 32.4866C234.38 32.4866 233.653 33.2138 233.653 34.1109C233.653 35.008 234.38 35.7352 235.277 35.7352Z" fill="white"/>
<path d="M256.394 32.4866H242.587C241.69 32.4866 240.962 33.2138 240.962 34.1109C240.962 35.008 241.69 35.7352 242.587 35.7352H256.394C257.291 35.7352 258.018 35.008 258.018 34.1109C258.018 33.2138 257.291 32.4866 256.394 32.4866Z" fill="white"/>
<path d="M296.19 42.2327H196.294C194.5 42.2327 193.045 43.6871 193.045 45.4813V82.8409C193.045 84.6351 194.5 86.0896 196.294 86.0896H296.19C297.984 86.0896 299.439 84.6351 299.439 82.8409V45.4813C299.439 43.6871 297.984 42.2327 296.19 42.2327Z" fill="white"/>
<path d="M281.571 55.3894H227.156C225.81 55.3894 224.719 56.4803 224.719 57.8259V59.5314C224.719 60.8771 225.81 61.9679 227.156 61.9679H281.571C282.916 61.9679 284.007 60.8771 284.007 59.5314V57.8259C284.007 56.4803 282.916 55.3894 281.571 55.3894Z" fill="#DDE3E9"/>
<path d="M262.079 66.3538H227.156C225.81 66.3538 224.719 67.4446 224.719 68.7903V70.4958C224.719 71.8414 225.81 72.9323 227.156 72.9323H262.079C263.424 72.9323 264.515 71.8414 264.515 70.4958V68.7903C264.515 67.4446 263.424 66.3538 262.079 66.3538Z" fill="#DDE3E9"/>
<path fill-rule="evenodd" clip-rule="evenodd" d="M210.1 73.907C215.483 73.907 219.846 69.5432 219.846 64.161C219.846 58.7788 215.483 54.415 210.1 54.415C204.718 54.415 200.354 58.7788 200.354 64.161C200.354 69.5432 204.718 73.907 210.1 73.907Z" fill="#C5CFD6"/>
<path d="M296.19 92.5867H196.294C194.499 92.5867 193.045 94.0411 193.045 95.8353V123.449C193.045 125.243 194.499 126.698 196.294 126.698H296.19C297.984 126.698 299.438 125.243 299.438 123.449V95.8353C299.438 94.0411 297.984 92.5867 296.19 92.5867Z" fill="white"/>
<path d="M281.571 102.82H227.156C225.81 102.82 224.719 103.911 224.719 105.257V105.5C224.719 106.846 225.81 107.937 227.156 107.937H281.571C282.916 107.937 284.007 106.846 284.007 105.5V105.257C284.007 103.911 282.916 102.82 281.571 102.82Z" fill="#DDE3E9"/>
<path d="M262.079 111.348H227.156C225.81 111.348 224.719 112.439 224.719 113.784V114.028C224.719 115.374 225.81 116.465 227.156 116.465H262.079C263.424 116.465 264.515 115.374 264.515 114.028V113.784C264.515 112.439 263.424 111.348 262.079 111.348Z" fill="#DDE3E9"/>
<path fill-rule="evenodd" clip-rule="evenodd" d="M210.1 119.388C215.483 119.388 219.846 115.024 219.846 109.642C219.846 104.26 215.483 99.8962 210.1 99.8962C204.718 99.8962 200.354 104.26 200.354 109.642C200.354 115.024 204.718 119.388 210.1 119.388Z" fill="#C5CFD6"/>
<path d="M296.19 133.195H196.294C194.499 133.195 193.045 134.649 193.045 136.443V164.057C193.045 165.851 194.499 167.306 196.294 167.306H296.19C297.984 167.306 299.438 165.851 299.438 164.057V136.443C299.438 134.649 297.984 133.195 296.19 133.195Z" fill="white"/>
<path d="M281.571 143.428H227.156C225.81 143.428 224.719 144.519 224.719 145.865V146.108C224.719 147.454 225.81 148.545 227.156 148.545H281.571C282.916 148.545 284.007 147.454 284.007 146.108V145.865C284.007 144.519 282.916 143.428 281.571 143.428Z" fill="#DDE3E9"/>
<path d="M262.079 151.956H227.156C225.81 151.956 224.719 153.047 224.719 154.393V154.636C224.719 155.982 225.81 157.073 227.156 157.073H262.079C263.424 157.073 264.515 155.982 264.515 154.636V154.393C264.515 153.047 263.424 151.956 262.079 151.956Z" fill="#DDE3E9"/>
<path fill-rule="evenodd" clip-rule="evenodd" d="M210.1 159.996C215.483 159.996 219.846 155.633 219.846 150.25C219.846 144.868 215.483 140.504 210.1 140.504C204.718 140.504 200.354 144.868 200.354 150.25C200.354 155.633 204.718 159.996 210.1 159.996Z" fill="#AFB9C5"/>
<path d="M296.19 173.803H196.294C194.499 173.803 193.045 175.258 193.045 177.052V204.665C193.045 206.46 194.499 207.914 196.294 207.914H296.19C297.984 207.914 299.438 206.46 299.438 204.665V177.052C299.438 175.258 297.984 173.803 296.19 173.803Z" fill="white"/>
<path d="M281.571 184.036H227.156C225.81 184.036 224.719 185.127 224.719 186.473V186.717C224.719 188.062 225.81 189.153 227.156 189.153H281.571C282.916 189.153 284.007 188.062 284.007 186.717V186.473C284.007 185.127 282.916 184.036 281.571 184.036Z" fill="#DDE3E9"/>
<path d="M262.079 192.564H227.156C225.81 192.564 224.719 193.655 224.719 195.001V195.244C224.719 196.59 225.81 197.681 227.156 197.681H262.079C263.424 197.681 264.515 196.59 264.515 195.244V195.001C264.515 193.655 263.424 192.564 262.079 192.564Z" fill="#DDE3E9"/>
<path fill-rule="evenodd" clip-rule="evenodd" d="M210.1 200.604C215.483 200.604 219.846 196.241 219.846 190.859C219.846 185.476 215.483 181.113 210.1 181.113C204.718 181.113 200.354 185.476 200.354 190.859C200.354 196.241 204.718 200.604 210.1 200.604Z" fill="#C5CFD6"/>
<path fill-rule="evenodd" clip-rule="evenodd" d="M206.153 217.66C205.076 217.66 204.004 217.682 202.929 217.737C202.11 217.78 200.858 217.611 200.165 218.121C199.445 218.652 199.494 219.737 199.607 220.504C200.202 224.558 201.653 228.153 204.69 231.025C209.365 235.447 214.725 237.695 221.067 238.695C225.523 239.399 229.635 238.422 232.915 235.254C235.312 239.701 237.129 244.623 238.041 249.59C238.491 252.042 238.629 254.463 238.55 256.959C238.499 258.558 238.411 260.153 238.239 261.744C238.165 262.435 237.812 263.481 238.083 264.135C238.4 264.901 239.472 264.976 239.952 264.321C240.353 263.777 240.28 262.708 240.362 262.064C240.498 260.993 240.624 259.922 240.714 258.847C240.861 257.106 240.969 255.361 240.962 253.613C240.943 249.688 240.07 245.747 238.876 242.021C236.586 234.872 232.87 228.518 227.091 223.533C223.537 220.468 219.47 219.227 214.856 218.56C211.982 218.145 209.062 217.66 206.153 217.66Z" fill="#89C5CC"/>
<path fill-rule="evenodd" clip-rule="evenodd" d="M222.746 246.086C211.133 246.086 203.312 255.445 199.614 265.173C198.22 268.84 197.893 272.866 197.355 276.716C197.183 277.952 197.247 279.835 196.745 280.935C196.564 281.335 196.146 281.478 196.346 282.022C196.467 282.351 196.703 282.553 197.06 282.618C197.79 282.753 198.823 281.957 199.449 281.643C204.644 279.038 208.056 275.01 210.841 270.081C212.567 267.027 214.318 263.855 215.343 260.502C215.969 258.453 216.334 256.296 216.548 254.17C216.633 253.333 216.714 252.476 216.709 251.635C216.704 250.799 216.315 250.357 216.036 249.63C219.911 248.163 224.285 247.764 228.21 249.283C231.841 250.689 234.856 253.406 236.545 256.82C236.983 257.706 237.322 258.642 237.568 259.597C237.73 260.222 237.737 261.033 238.037 261.598C238.761 262.969 240.286 262.053 240.14 260.777C239.732 257.219 237.696 253.646 235.094 251.173C231.812 248.052 227.365 246.086 222.746 246.086Z" fill="#89C5CC"/>
<path d="M357.914 40.6084H241.774C238.186 40.6084 235.277 43.5173 235.277 47.1057V279.385C235.277 282.973 238.186 285.882 241.774 285.882H357.914C361.502 285.882 364.411 282.973 364.411 279.385V47.1057C364.411 43.5173 361.502 40.6084 357.914 40.6084Z" fill="#DDE3E9"/>
<path fill-rule="evenodd" clip-rule="evenodd" d="M299.438 270.451C306.166 270.451 311.62 264.996 311.62 258.268C311.62 251.54 306.166 246.086 299.438 246.086C292.71 246.086 287.255 251.54 287.255 258.268C287.255 264.996 292.71 270.451 299.438 270.451Z" fill="white"/>
<path fill-rule="evenodd" clip-rule="evenodd" d="M288.88 56.8517C289.777 56.8517 290.504 56.1248 290.504 55.2274C290.504 54.3299 289.777 53.603 288.88 53.603C287.982 53.603 287.255 54.3299 287.255 55.2274C287.255 56.1248 287.982 56.8517 288.88 56.8517Z" fill="white"/>
<path d="M309.996 53.603H296.189C295.292 53.603 294.564 54.3303 294.564 55.2274C294.564 56.1244 295.292 56.8517 296.189 56.8517H309.996C310.893 56.8517 311.62 56.1244 311.62 55.2274C311.62 54.3303 310.893 53.603 309.996 53.603Z" fill="white"/>
<path d="M349.792 63.3489H249.896C248.102 63.3489 246.647 64.8034 246.647 66.5975V103.957C246.647 105.751 248.102 107.206 249.896 107.206H349.792C351.587 107.206 353.041 105.751 353.041 103.957V66.5975C353.041 64.8034 351.587 63.3489 349.792 63.3489Z" fill="white"/>
<path d="M310.809 76.5059H256.394C255.048 76.5059 253.957 77.5967 253.957 78.9424V80.6479C253.957 81.9935 255.048 83.0844 256.394 83.0844H310.809C312.154 83.0844 313.245 81.9935 313.245 80.6479V78.9424C313.245 77.5967 312.154 76.5059 310.809 76.5059Z" fill="#DDE3E9"/>
<path d="M291.317 87.4702H256.394C255.048 87.4702 253.957 88.5611 253.957 89.9067V91.6123C253.957 92.9579 255.048 94.0488 256.394 94.0488H291.317C292.662 94.0488 293.753 92.9579 293.753 91.6123V89.9067C293.753 88.5611 292.662 87.4702 291.317 87.4702Z" fill="#DDE3E9"/>
<path fill-rule="evenodd" clip-rule="evenodd" d="M341.671 90.9626C344.81 90.9626 347.356 88.4173 347.356 85.2774C347.356 82.1376 344.81 79.5923 341.671 79.5923C338.531 79.5923 335.985 82.1376 335.985 85.2774C335.985 88.4173 338.531 90.9626 341.671 90.9626Z" fill="#DDE3E9"/>
<path fill-rule="evenodd" clip-rule="evenodd" d="M341.67 87.7138C343.016 87.7138 344.107 86.6231 344.107 85.2773C344.107 83.9316 343.016 82.8408 341.67 82.8408C340.325 82.8408 339.234 83.9316 339.234 85.2773C339.234 86.6231 340.325 87.7138 341.67 87.7138Z" fill="#F2F2F2"/>
<path d="M349.792 113.703H249.896C248.102 113.703 246.647 115.158 246.647 116.952V144.565C246.647 146.36 248.102 147.814 249.896 147.814H349.792C351.587 147.814 353.041 146.36 353.041 144.565V116.952C353.041 115.158 351.587 113.703 349.792 113.703Z" fill="white"/>
<path d="M335.174 123.936H280.759C279.413 123.936 278.322 125.027 278.322 126.373V126.616C278.322 127.962 279.413 129.053 280.759 129.053H335.174C336.519 129.053 337.61 127.962 337.61 126.616V126.373C337.61 125.027 336.519 123.936 335.174 123.936Z" fill="#DDE3E9"/>
<path d="M315.682 132.464H280.759C279.413 132.464 278.322 133.555 278.322 134.901V135.144C278.322 136.49 279.413 137.581 280.759 137.581H315.682C317.027 137.581 318.118 136.49 318.118 135.144V134.901C318.118 133.555 317.027 132.464 315.682 132.464Z" fill="#DDE3E9"/>
<path fill-rule="evenodd" clip-rule="evenodd" d="M263.703 140.504C269.085 140.504 273.449 136.141 273.449 130.758C273.449 125.376 269.085 121.012 263.703 121.012C258.321 121.012 253.957 125.376 253.957 130.758C253.957 136.141 258.321 140.504 263.703 140.504Z" fill="#C5CFD6"/>
<path d="M349.792 154.311H249.896C248.102 154.311 246.647 155.766 246.647 157.56V185.174C246.647 186.968 248.102 188.422 249.896 188.422H349.792C351.587 188.422 353.041 186.968 353.041 185.174V157.56C353.041 155.766 351.587 154.311 349.792 154.311Z" fill="white"/>
<path d="M310.809 164.545H256.394C255.048 164.545 253.957 165.636 253.957 166.981V167.225C253.957 168.57 255.048 169.661 256.394 169.661H310.809C312.154 169.661 313.245 168.57 313.245 167.225V166.981C313.245 165.636 312.154 164.545 310.809 164.545Z" fill="#DDE3E9"/>
<path d="M291.317 173.072H256.394C255.048 173.072 253.957 174.163 253.957 175.509V175.752C253.957 177.098 255.048 178.189 256.394 178.189H291.317C292.662 178.189 293.753 177.098 293.753 175.752V175.509C293.753 174.163 292.662 173.072 291.317 173.072Z" fill="#AFB9C5"/>
<path fill-rule="evenodd" clip-rule="evenodd" d="M341.671 177.052C344.81 177.052 347.356 174.507 347.356 171.367C347.356 168.227 344.81 165.682 341.671 165.682C338.531 165.682 335.985 168.227 335.985 171.367C335.985 174.507 338.531 177.052 341.671 177.052Z" fill="#DDE3E9"/>
<path fill-rule="evenodd" clip-rule="evenodd" d="M341.67 173.803C343.016 173.803 344.107 172.712 344.107 171.367C344.107 170.021 343.016 168.93 341.67 168.93C340.325 168.93 339.234 170.021 339.234 171.367C339.234 172.712 340.325 173.803 341.67 173.803Z" fill="#F2F2F2"/>
<path d="M349.792 194.919H249.896C248.102 194.919 246.647 196.374 246.647 198.168V225.782C246.647 227.576 248.102 229.03 249.896 229.03H349.792C351.587 229.03 353.041 227.576 353.041 225.782V198.168C353.041 196.374 351.587 194.919 349.792 194.919Z" fill="white"/>
<path d="M335.174 205.153H280.759C279.413 205.153 278.322 206.244 278.322 207.589V207.833C278.322 209.179 279.413 210.269 280.759 210.269H335.174C336.519 210.269 337.61 209.179 337.61 207.833V207.589C337.61 206.244 336.519 205.153 335.174 205.153Z" fill="#DDE3E9"/>
<path d="M315.682 213.681H280.759C279.413 213.681 278.322 214.772 278.322 216.117V216.361C278.322 217.706 279.413 218.797 280.759 218.797H315.682C317.027 218.797 318.118 217.706 318.118 216.361V216.117C318.118 214.772 317.027 213.681 315.682 213.681Z" fill="#DDE3E9"/>
<path fill-rule="evenodd" clip-rule="evenodd" d="M263.703 221.721C269.085 221.721 273.449 217.357 273.449 211.975C273.449 206.593 269.085 202.229 263.703 202.229C258.321 202.229 253.957 206.593 253.957 211.975C253.957 217.357 258.321 221.721 263.703 221.721Z" fill="#C5CFD6"/>
<path d="M554.458 60.9124H295.377C291.789 60.9124 288.88 63.8213 288.88 67.4097V335.424C288.88 339.012 291.789 341.921 295.377 341.921H554.458C558.046 341.921 560.955 339.012 560.955 335.424V67.4097C560.955 63.8213 558.046 60.9124 554.458 60.9124Z" fill="#F2F2F2"/>
<path d="M541.464 95.8354H497.607C494.018 95.8354 491.109 98.7444 491.109 102.333V155.123C491.109 158.712 494.018 161.621 497.607 161.621H541.464C545.052 161.621 547.961 158.712 547.961 155.123V102.333C547.961 98.7444 545.052 95.8354 541.464 95.8354Z" fill="white"/>
<path fill-rule="evenodd" clip-rule="evenodd" d="M519.535 134.007C526.712 134.007 532.53 128.19 532.53 121.013C532.53 113.836 526.712 108.018 519.535 108.018C512.358 108.018 506.541 113.836 506.541 121.013C506.541 128.19 512.358 134.007 519.535 134.007Z" fill="#DDE3E9"/>
<path d="M537.403 137.256H501.667C500.322 137.256 499.231 138.347 499.231 139.692C499.231 141.038 500.322 142.129 501.667 142.129H537.403C538.748 142.129 539.839 141.038 539.839 139.692C539.839 138.347 538.748 137.256 537.403 137.256Z" fill="#DDE3E9"/>
<path d="M530.906 145.377H508.165C506.819 145.377 505.729 146.468 505.729 147.814C505.729 149.16 506.819 150.25 508.165 150.25H530.906C532.251 150.25 533.342 149.16 533.342 147.814C533.342 146.468 532.251 145.377 530.906 145.377Z" fill="#DDE3E9"/>
<path d="M288.88 67.4097C288.88 63.8215 291.789 60.9124 295.377 60.9124H554.458C558.046 60.9124 560.955 63.8215 560.955 67.4097V82.8408H288.88V67.4097Z" fill="#C5CFD6"/>
<path fill-rule="evenodd" clip-rule="evenodd" d="M299.438 75.5315C301.232 75.5315 302.687 74.0769 302.687 72.2828C302.687 70.4888 301.232 69.0342 299.438 69.0342C297.644 69.0342 296.189 70.4888 296.189 72.2828C296.189 74.0769 297.644 75.5315 299.438 75.5315Z" fill="#F2F2F2"/>
<path fill-rule="evenodd" clip-rule="evenodd" d="M309.184 75.5313C310.978 75.5313 312.433 74.0767 312.433 72.2826C312.433 70.4885 310.978 69.0339 309.184 69.0339C307.39 69.0339 305.936 70.4885 305.936 72.2826C305.936 74.0767 307.39 75.5313 309.184 75.5313Z" fill="#F2F2F2"/>
<path fill-rule="evenodd" clip-rule="evenodd" d="M318.93 75.5313C320.724 75.5313 322.179 74.0767 322.179 72.2826C322.179 70.4885 320.724 69.0339 318.93 69.0339C317.136 69.0339 315.682 70.4885 315.682 72.2826C315.682 74.0767 317.136 75.5313 318.93 75.5313Z" fill="#F2F2F2"/>
<path d="M541.464 168.118H497.607C494.018 168.118 491.109 171.027 491.109 174.615V319.181C491.109 322.769 494.018 325.678 497.607 325.678H541.464C545.052 325.678 547.961 322.769 547.961 319.181V174.615C547.961 171.027 545.052 168.118 541.464 168.118Z" fill="white"/>
<path d="M530.093 182.737H508.977C507.183 182.737 505.729 184.191 505.729 185.985V200.604C505.729 202.399 507.183 203.853 508.977 203.853H530.093C531.888 203.853 533.342 202.399 533.342 200.604V185.985C533.342 184.191 531.888 182.737 530.093 182.737Z" fill="#DDE3E9"/>
<path d="M530.093 210.351H508.977C507.183 210.351 505.729 211.805 505.729 213.599V227.406C505.729 229.2 507.183 230.655 508.977 230.655H530.093C531.888 230.655 533.342 229.2 533.342 227.406V213.599C533.342 211.805 531.888 210.351 530.093 210.351Z" fill="#AFB9C5"/>
<path d="M530.093 237.152H508.977C507.183 237.152 505.729 238.606 505.729 240.401V254.207C505.729 256.001 507.183 257.456 508.977 257.456H530.093C531.888 257.456 533.342 256.001 533.342 254.207V240.401C533.342 238.606 531.888 237.152 530.093 237.152Z" fill="#DDE3E9"/>
<path d="M530.093 290.755H508.977C507.183 290.755 505.729 292.209 505.729 294.004V307.81C505.729 309.605 507.183 311.059 508.977 311.059H530.093C531.888 311.059 533.342 309.605 533.342 307.81V294.004C533.342 292.209 531.888 290.755 530.093 290.755Z" fill="#DDE3E9"/>
<path d="M530.093 263.953H508.977C507.183 263.953 505.729 265.408 505.729 267.202V281.009C505.729 282.803 507.183 284.257 508.977 284.257H530.093C531.888 284.257 533.342 282.803 533.342 281.009V267.202C533.342 265.408 531.888 263.953 530.093 263.953Z" fill="#C5CFD6"/>
<path d="M481.363 96.6475H305.124C303.329 96.6475 301.875 98.1019 301.875 99.8961V131.571C301.875 133.365 303.329 134.819 305.124 134.819H481.363C483.158 134.819 484.612 133.365 484.612 131.571V99.8961C484.612 98.1019 483.158 96.6475 481.363 96.6475Z" fill="white"/>
<path d="M442.38 108.099H311.621C310.275 108.099 309.185 109.19 309.185 110.536V111.388C309.185 112.734 310.275 113.825 311.621 113.825H442.38C443.725 113.825 444.816 112.734 444.816 111.388V110.536C444.816 109.19 443.725 108.099 442.38 108.099Z" fill="#DDE3E9"/>
<path d="M397.788 117.642H311.621C310.275 117.642 309.185 118.733 309.185 120.079V120.931C309.185 122.277 310.275 123.368 311.621 123.368H397.788C399.134 123.368 400.225 122.277 400.225 120.931V120.079C400.225 118.733 399.134 117.642 397.788 117.642Z" fill="#DDE3E9"/>
<path fill-rule="evenodd" clip-rule="evenodd" d="M465.083 121.418C468.223 121.418 470.768 118.873 470.768 115.733C470.768 112.593 468.223 110.048 465.083 110.048C461.943 110.048 459.398 112.593 459.398 115.733C459.398 118.873 461.943 121.418 465.083 121.418Z" fill="#DDE3E9"/>
<path fill-rule="evenodd" clip-rule="evenodd" d="M465.083 118.17C466.429 118.17 467.519 117.079 467.519 115.733C467.519 114.388 466.429 113.297 465.083 113.297C463.737 113.297 462.646 114.388 462.646 115.733C462.646 117.079 463.737 118.17 465.083 118.17Z" fill="#F2F2F2"/>
<path d="M481.363 141.316H305.124C303.329 141.316 301.875 142.771 301.875 144.565V169.742C301.875 171.536 303.329 172.991 305.124 172.991H481.363C483.158 172.991 484.612 171.536 484.612 169.742V144.565C484.612 142.771 483.158 141.316 481.363 141.316Z" fill="white"/>
<path d="M442.44 150.819H311.56C310.248 150.819 309.185 151.882 309.185 153.194C309.185 154.506 310.248 155.57 311.56 155.57H442.44C443.752 155.57 444.816 154.506 444.816 153.194C444.816 151.882 443.752 150.819 442.44 150.819Z" fill="#DDE3E9"/>
<path d="M397.849 158.738H311.56C310.248 158.738 309.185 159.801 309.185 161.113C309.185 162.425 310.248 163.489 311.56 163.489H397.849C399.161 163.489 400.225 162.425 400.225 161.113C400.225 159.801 399.161 158.738 397.849 158.738Z" fill="#DDE3E9"/>
<path fill-rule="evenodd" clip-rule="evenodd" d="M465.083 162.839C468.223 162.839 470.768 160.293 470.768 157.154C470.768 154.014 468.223 151.469 465.083 151.469C461.943 151.469 459.398 154.014 459.398 157.154C459.398 160.293 461.943 162.839 465.083 162.839Z" fill="#DDE3E9"/>
<path fill-rule="evenodd" clip-rule="evenodd" d="M465.083 159.59C466.429 159.59 467.519 158.499 467.519 157.154C467.519 155.808 466.429 154.717 465.083 154.717C463.737 154.717 462.646 155.808 462.646 157.154C462.646 158.499 463.737 159.59 465.083 159.59Z" fill="#F2F2F2"/>
<path d="M481.363 179.488H305.124C303.329 179.488 301.875 180.943 301.875 182.737V207.914C301.875 209.708 303.329 211.163 305.124 211.163H481.363C483.158 211.163 484.612 209.708 484.612 207.914V182.737C484.612 180.943 483.158 179.488 481.363 179.488Z" fill="white"/>
<path d="M442.44 188.991H311.56C310.248 188.991 309.185 190.054 309.185 191.366C309.185 192.678 310.248 193.742 311.56 193.742H442.44C443.752 193.742 444.816 192.678 444.816 191.366C444.816 190.054 443.752 188.991 442.44 188.991Z" fill="#DDE3E9"/>
<path d="M397.849 196.909H311.56C310.248 196.909 309.185 197.973 309.185 199.285C309.185 200.597 310.248 201.66 311.56 201.66H397.849C399.161 201.66 400.225 200.597 400.225 199.285C400.225 197.973 399.161 196.909 397.849 196.909Z" fill="#DDE3E9"/>
<path fill-rule="evenodd" clip-rule="evenodd" d="M465.083 201.011C468.223 201.011 470.768 198.465 470.768 195.326C470.768 192.186 468.223 189.64 465.083 189.64C461.943 189.64 459.398 192.186 459.398 195.326C459.398 198.465 461.943 201.011 465.083 201.011Z" fill="#DDE3E9"/>
<path fill-rule="evenodd" clip-rule="evenodd" d="M465.083 197.762C466.429 197.762 467.519 196.671 467.519 195.326C467.519 193.98 466.429 192.889 465.083 192.889C463.737 192.889 462.646 193.98 462.646 195.326C462.646 196.671 463.737 197.762 465.083 197.762Z" fill="#AFB9C5"/>
<path d="M481.363 294.003H305.124C303.329 294.003 301.875 295.458 301.875 297.252V322.429C301.875 324.223 303.329 325.678 305.124 325.678H481.363C483.158 325.678 484.612 324.223 484.612 322.429V297.252C484.612 295.458 483.158 294.003 481.363 294.003Z" fill="white"/>
<path d="M442.44 303.506H311.56C310.248 303.506 309.185 304.569 309.185 305.881C309.185 307.193 310.248 308.257 311.56 308.257H442.44C443.752 308.257 444.816 307.193 444.816 305.881C444.816 304.569 443.752 303.506 442.44 303.506Z" fill="#DDE3E9"/>
<path d="M397.849 311.424H311.56C310.248 311.424 309.185 312.488 309.185 313.8C309.185 315.112 310.248 316.175 311.56 316.175H397.849C399.161 316.175 400.225 315.112 400.225 313.8C400.225 312.488 399.161 311.424 397.849 311.424Z" fill="#DDE3E9"/>
<path fill-rule="evenodd" clip-rule="evenodd" d="M465.083 315.526C468.223 315.526 470.768 312.98 470.768 309.841C470.768 306.701 468.223 304.156 465.083 304.156C461.943 304.156 459.398 306.701 459.398 309.841C459.398 312.98 461.943 315.526 465.083 315.526Z" fill="#DDE3E9"/>
<path fill-rule="evenodd" clip-rule="evenodd" d="M465.083 312.277C466.429 312.277 467.519 311.187 467.519 309.841C467.519 308.495 466.429 307.404 465.083 307.404C463.737 307.404 462.646 308.495 462.646 309.841C462.646 311.187 463.737 312.277 465.083 312.277Z" fill="#F2F2F2"/>
<path d="M481.363 255.832H305.124C303.329 255.832 301.875 257.286 301.875 259.08V284.258C301.875 286.052 303.329 287.506 305.124 287.506H481.363C483.158 287.506 484.612 286.052 484.612 284.258V259.08C484.612 257.286 483.158 255.832 481.363 255.832Z" fill="white"/>
<path d="M442.44 265.334H311.56C310.248 265.334 309.185 266.398 309.185 267.71C309.185 269.022 310.248 270.085 311.56 270.085H442.44C443.752 270.085 444.816 269.022 444.816 267.71C444.816 266.398 443.752 265.334 442.44 265.334Z" fill="#DDE3E9"/>
<path d="M397.849 273.253H311.56C310.248 273.253 309.185 274.316 309.185 275.628C309.185 276.94 310.248 278.004 311.56 278.004H397.849C399.161 278.004 400.225 276.94 400.225 275.628C400.225 274.316 399.161 273.253 397.849 273.253Z" fill="#DDE3E9"/>
<path fill-rule="evenodd" clip-rule="evenodd" d="M465.083 277.354C468.223 277.354 470.768 274.809 470.768 271.669C470.768 268.529 468.223 265.984 465.083 265.984C461.943 265.984 459.398 268.529 459.398 271.669C459.398 274.809 461.943 277.354 465.083 277.354Z" fill="#DDE3E9"/>
<path fill-rule="evenodd" clip-rule="evenodd" d="M465.083 274.105C466.429 274.105 467.519 273.015 467.519 271.669C467.519 270.323 466.429 269.232 465.083 269.232C463.737 269.232 462.646 270.323 462.646 271.669C462.646 273.015 463.737 274.105 465.083 274.105Z" fill="#F2F2F2"/>
<path d="M481.363 217.66H305.124C303.329 217.66 301.875 219.114 301.875 220.909V246.086C301.875 247.88 303.329 249.334 305.124 249.334H481.363C483.158 249.334 484.612 247.88 484.612 246.086V220.909C484.612 219.114 483.158 217.66 481.363 217.66Z" fill="white"/>
<path d="M442.44 227.162H311.56C310.248 227.162 309.185 228.226 309.185 229.538C309.185 230.85 310.248 231.913 311.56 231.913H442.44C443.752 231.913 444.816 230.85 444.816 229.538C444.816 228.226 443.752 227.162 442.44 227.162Z" fill="#DDE3E9"/>
<path d="M397.849 235.081H311.56C310.248 235.081 309.185 236.144 309.185 237.456C309.185 238.768 310.248 239.832 311.56 239.832H397.849C399.161 239.832 400.225 238.768 400.225 237.456C400.225 236.144 399.161 235.081 397.849 235.081Z" fill="#DDE3E9"/>
<path fill-rule="evenodd" clip-rule="evenodd" d="M465.083 239.182C468.223 239.182 470.768 236.637 470.768 233.497C470.768 230.357 468.223 227.812 465.083 227.812C461.943 227.812 459.398 230.357 459.398 233.497C459.398 236.637 461.943 239.182 465.083 239.182Z" fill="#DDE3E9"/>
<path fill-rule="evenodd" clip-rule="evenodd" d="M465.083 235.934C466.429 235.934 467.519 234.843 467.519 233.497C467.519 232.151 466.429 231.061 465.083 231.061C463.737 231.061 462.646 232.151 462.646 233.497C462.646 234.843 463.737 235.934 465.083 235.934Z" fill="#F2F2F2"/>
<path fill-rule="evenodd" clip-rule="evenodd" d="M628.354 199.286C625.15 197.113 620.89 196.544 617.057 196.544C602.084 196.544 588.01 202.099 575.852 210.377C569.189 214.912 563.23 220.688 557.969 226.701C554.931 230.173 552.223 233.928 550.306 238.105C549.012 240.924 548.124 243.861 547.523 246.891C546.789 250.583 546.206 254.35 545.943 258.104C545.839 259.582 544.98 267.425 547.438 267.558C547.423 267.751 547.42 267.936 547.436 268.101C542.099 276.445 538.802 286.223 535.745 295.494C533.085 303.562 530.714 311.698 529.176 320.044C527.149 331.032 525.819 342.186 525.186 353.332C525.051 355.727 524.957 358.124 524.877 360.522C524.809 362.568 524.74 364.614 524.672 366.661C524.598 368.953 524.194 371.593 524.559 373.872C524.876 375.857 526.594 375.556 526.67 373.581C526.762 371.196 526.747 368.806 526.851 366.419C526.99 363.25 527.133 360.082 527.288 356.915C528.368 334.912 532.416 313.232 539.889 292.448C542.913 284.037 546.378 276.075 550.832 268.295C554.748 261.454 559.458 254.831 564.273 248.663C568.951 242.668 573.817 236.813 579.55 231.735C584.203 227.614 589.321 224.024 594.583 220.683C601.264 216.44 607.934 212.301 615.172 209.044C618.935 207.351 622.768 205.836 626.56 204.211C627.242 203.919 627.973 203.636 628.629 203.297C630.818 202.168 630.098 200.468 628.354 199.286Z" fill="#C1DEE2"/>
<path fill-rule="evenodd" clip-rule="evenodd" d="M568.117 276.136C574.189 276.136 579.594 276.925 585.189 279.338C590.018 281.422 594.42 284.179 598.694 287.181C604.705 291.403 609.44 296.317 612.754 302.828C614.734 306.717 616.187 312.221 614.857 316.464C613.291 321.46 608.99 325.628 603.325 324.748C599.822 324.204 596.612 321.885 593.949 319.703C590.764 317.092 588.215 313.953 586.109 310.466C582.676 304.779 580.658 298.349 577.741 292.406C576.357 289.585 575.019 286.745 573.361 284.064C572.541 282.737 571.667 281.422 570.422 280.436C569.756 279.908 566.947 278.995 568.021 277.81C552.273 278.016 538.322 290.111 535.298 305.082C535.017 306.478 534.797 307.884 534.564 309.289C534.418 310.175 534.477 313.444 533.684 314.01C531.936 315.26 532.671 311.464 532.746 310.918C532.94 309.505 533.147 308.095 533.363 306.686C534.544 299.024 537.955 291.901 543.644 286.437C550.148 280.189 558.926 276.136 568.117 276.136Z" fill="#89C5CC"/>
<path fill-rule="evenodd" clip-rule="evenodd" d="M130.457 257.242C145.618 282.676 163.275 307.302 173.878 335.11C173.451 331.832 172.998 328.557 172.49 325.288C169.8 307.956 166.456 290.75 162.942 273.565C161.153 264.816 159.26 256.097 157.319 247.38C156.275 242.698 155.244 238.014 154.178 233.337C153.92 232.203 153.698 230.223 153.376 228.218C163.681 262.034 173.618 295.876 180.887 330.504C181.841 335.049 182.653 339.586 183.318 344.114C183.545 343.081 183.77 342.048 184.014 341.017C186.956 328.667 191.367 316.414 196.621 304.865C199.132 299.344 202.016 293.942 205.412 288.908C207.53 285.771 212.525 282.041 214.456 278.827C203.891 298.207 200.075 322.455 193.974 343.524C192.486 348.666 190.987 353.798 189.519 358.94C198.719 340.489 212.994 325.33 232.841 318.761C208.817 334.634 194.407 362.432 184.697 390.862C184.665 391.199 184.627 391.536 184.594 391.874C187.452 386.451 191.051 381.546 195.929 378.111C206.37 370.756 217.951 372.899 228.079 379.208C220.13 374.155 205.765 378.756 199.077 383.892C194.29 387.567 190.198 392.499 186.645 397.311C185.794 398.464 184.631 399.81 183.404 401.245C181.684 412.413 178.88 423.505 174.911 434.508C175.566 431.35 175.092 426.299 175.274 423.944C175.294 423.69 175.31 423.434 175.33 423.181C174.726 425.59 174.143 427.971 173.582 430.315C174.698 425.843 175.304 421.175 175.777 416.459C175.899 414.432 176.018 412.405 176.143 410.379C176.104 406.531 175.945 402.67 175.677 398.802C174.728 395.043 173.664 391.497 172.786 388.548C169.621 377.908 164.979 367.716 159.267 358.206C154.056 349.528 147.817 341.668 140.615 334.559C136.733 330.727 132.669 327.079 128.663 323.38C127.215 322.042 124.626 318.754 122.386 317.039C138.695 326.031 155.481 335.757 167.379 350.244C165.983 344.888 164.469 339.607 162.866 334.433C154.736 308.179 144.47 280.971 130.457 257.242Z" fill="#DDE3E9"/>
<path fill-rule="evenodd" clip-rule="evenodd" d="M146.751 401.209C146.751 430.365 149.06 454 180.05 454C211.04 454 213.349 430.365 213.349 401.209" fill="#C5CFD6"/>
<path d="M496.794 28.4258C496.794 27.0801 495.703 25.9893 494.357 25.9893C493.012 25.9893 491.921 27.0801 491.921 28.4258V43.8569C491.921 45.2025 493.012 46.2934 494.357 46.2934C495.703 46.2934 496.794 45.2025 496.794 43.8569V28.4258Z" fill="#DDE3E9"/>
<path d="M508.164 15.4311C508.164 14.0855 507.073 12.9946 505.728 12.9946C504.382 12.9946 503.291 14.0855 503.291 15.4311V43.8569C503.291 45.2025 504.382 46.2934 505.728 46.2934C507.073 46.2934 508.164 45.2025 508.164 43.8569V15.4311Z" fill="#DDE3E9"/>
<path d="M519.535 8.93381C519.535 7.58817 518.444 6.49731 517.098 6.49731C515.752 6.49731 514.662 7.58817 514.662 8.93381V43.8569C514.662 45.2025 515.752 46.2934 517.098 46.2934C518.444 46.2934 519.535 45.2025 519.535 43.8569V8.93381Z" fill="#DDE3E9"/>
<path d="M530.905 15.4311C530.905 14.0855 529.814 12.9946 528.468 12.9946C527.123 12.9946 526.032 14.0855 526.032 15.4311V43.8569C526.032 45.2025 527.123 46.2934 528.468 46.2934C529.814 46.2934 530.905 45.2025 530.905 43.8569V15.4311Z" fill="#DDE3E9"/>
<path d="M542.275 2.43649C542.275 1.09086 541.184 0 539.839 0C538.493 0 537.402 1.09086 537.402 2.43649V43.8569C537.402 45.2025 538.493 46.2934 539.839 46.2934C541.184 46.2934 542.275 45.2025 542.275 43.8569V2.43649Z" fill="#C5CFD6"/>
<path fill-rule="evenodd" clip-rule="evenodd" d="M92.3364 248.73C92.3364 239.684 99.6475 232.279 108.58 232.279V248.73L97.4791 260.705C94.3214 257.777 92.3364 253.482 92.3364 248.73Z" fill="#F2F2F2"/>
<path fill-rule="evenodd" clip-rule="evenodd" d="M108.15 248.522H124.553C124.553 252.763 122.823 256.736 120.089 259.623C117.081 262.781 112.798 264.766 108.15 264.766C103.867 264.766 99.9478 263.053 96.9395 260.345L108.15 248.522Z" fill="#AFB9C5"/>
<path fill-rule="evenodd" clip-rule="evenodd" d="M124.823 248.522C124.823 239.59 117.512 232.279 108.58 232.279V248.522H124.823ZM100.458 232.279L106.955 246.898L92.3364 240.401C93.7821 236.611 97.0283 233.725 100.458 232.279Z" fill="#C5CFD6"/>
<path fill-rule="evenodd" clip-rule="evenodd" d="M620.866 255.977C619.305 257.634 617.095 258.674 614.635 258.674C609.911 258.674 606.081 254.856 606.081 250.147C606.081 245.437 609.911 241.619 614.635 241.619V225.782C601.195 225.782 590.193 236.748 590.193 250.147C590.193 263.545 601.195 274.512 614.635 274.512C621.696 274.512 628.077 271.534 632.426 266.798L620.866 255.977Z" fill="#F2F2F2"/>
<path fill-rule="evenodd" clip-rule="evenodd" d="M614.559 225.782V241.619C619.268 241.619 623.086 245.437 623.086 250.147H638.924C638.924 236.748 627.957 225.782 614.559 225.782Z" fill="#AFB9C5"/>
<path fill-rule="evenodd" clip-rule="evenodd" d="M622.759 250.147C622.759 252.914 621.456 255.373 619.432 256.962L629.39 269.639C635.187 265.1 638.924 258.065 638.924 250.147H622.759Z" fill="#C5CFD6"/>
<path fill-rule="evenodd" clip-rule="evenodd" d="M465.974 32.0839C464.773 33.3542 463.073 34.1518 461.181 34.1518C457.547 34.1518 454.601 31.2247 454.601 27.6139C454.601 24.0031 457.547 21.0759 461.181 21.0759V8.93408C450.842 8.93408 442.379 17.3419 442.379 27.6139C442.379 37.8859 450.842 46.2937 461.181 46.2937C466.612 46.2937 471.52 44.0107 474.866 40.3795L465.974 32.0839Z" fill="#F2F2F2"/>
<path fill-rule="evenodd" clip-rule="evenodd" d="M461.059 8.93384V21.0757C464.67 21.0757 467.597 24.0028 467.597 27.6136H479.739C479.739 17.3416 471.331 8.93384 461.059 8.93384Z" fill="#AFB9C5"/>
<path fill-rule="evenodd" clip-rule="evenodd" d="M467.615 27.6135C467.615 29.6888 466.638 31.5335 465.12 32.7246L472.588 42.2325C476.937 38.8285 479.739 33.5521 479.739 27.6135H467.615Z" fill="#C5CFD6"/>
<path fill-rule="evenodd" clip-rule="evenodd" d="M170.31 46.2821C170.306 46.2902 170.303 46.2983 170.298 46.308C170.303 46.2999 170.31 46.2674 170.31 46.2821Z" fill="#C5CFD6"/>
<path fill-rule="evenodd" clip-rule="evenodd" d="M170.302 46.2942C170.302 46.2959 170.301 46.2991 170.301 46.3024C170.301 46.2942 170.315 46.2699 170.302 46.2942Z" fill="#C5CFD6"/>
<path fill-rule="evenodd" clip-rule="evenodd" d="M170.358 46.157C170.347 46.1895 170.332 46.2203 170.319 46.2528C170.326 46.2366 170.332 46.2236 170.339 46.2073C170.17 46.6297 170.277 46.3552 170.358 46.157Z" fill="#C5CFD6"/>
<path fill-rule="evenodd" clip-rule="evenodd" d="M170.322 46.2554C170.315 46.27 170.309 46.2862 170.302 46.3009C170.255 46.3918 170.322 46.2554 170.322 46.2554Z" fill="#C5CFD6"/>
<path fill-rule="evenodd" clip-rule="evenodd" d="M170.303 46.2957C170.303 46.2937 170.303 46.2937 170.305 46.2917C170.303 46.2937 170.303 46.2937 170.303 46.2957Z" fill="#C5CFD6"/>
<path fill-rule="evenodd" clip-rule="evenodd" d="M170.296 46.3064C170.286 46.3259 170.342 46.2317 170.296 46.3064V46.3064Z" fill="#C5CFD6"/>
<path fill-rule="evenodd" clip-rule="evenodd" d="M170.302 46.2957L170.306 46.2917C170.304 46.2937 170.304 46.2957 170.302 46.2957Z" fill="#C5CFD6"/>
<path d="M205.227 4.06079H134.569C132.775 4.06079 131.32 5.51526 131.32 7.30945V51.9785C131.32 53.7727 132.775 55.2272 134.569 55.2272H205.227C207.021 55.2272 208.476 53.7727 208.476 51.9785V7.30945C208.476 5.51526 207.021 4.06079 205.227 4.06079Z" fill="#DDE3E9"/>
<path fill-rule="evenodd" clip-rule="evenodd" d="M160.558 18.6799L137.817 55.2273H183.299L160.558 18.6799Z" fill="#AFB9C5"/>
<path fill-rule="evenodd" clip-rule="evenodd" d="M182.893 28.4258L162.995 55.2272H202.791L182.893 28.4258Z" fill="#C5CFD6"/>
<path fill-rule="evenodd" clip-rule="evenodd" d="M191.42 28.4258C195.458 28.4258 198.73 25.1533 198.73 21.1164C198.73 17.0794 195.458 13.8069 191.42 13.8069C187.383 13.8069 184.111 17.0794 184.111 21.1164C184.111 25.1533 187.383 28.4258 191.42 28.4258Z" fill="white"/>
<path fill-rule="evenodd" clip-rule="evenodd" d="M557.701 393.076C557.704 393.084 557.708 393.092 557.713 393.102C557.708 393.094 557.701 393.062 557.701 393.076Z" fill="#C5CFD6"/>
<path fill-rule="evenodd" clip-rule="evenodd" d="M557.708 393.088C557.708 393.09 557.71 393.093 557.71 393.097C557.71 393.088 557.695 393.064 557.708 393.088Z" fill="#C5CFD6"/>
<path fill-rule="evenodd" clip-rule="evenodd" d="M557.652 392.951C557.664 392.984 557.678 393.015 557.691 393.047C557.685 393.031 557.678 393.018 557.672 393.002C557.841 393.424 557.734 393.149 557.652 392.951Z" fill="#C5CFD6"/>
<path fill-rule="evenodd" clip-rule="evenodd" d="M557.689 393.05C557.695 393.064 557.702 393.08 557.708 393.095C557.756 393.186 557.689 393.05 557.689 393.05Z" fill="#C5CFD6"/>
<path fill-rule="evenodd" clip-rule="evenodd" d="M557.708 393.09C557.708 393.088 557.708 393.088 557.706 393.086C557.708 393.088 557.708 393.088 557.708 393.09Z" fill="#C5CFD6"/>
<path fill-rule="evenodd" clip-rule="evenodd" d="M557.715 393.101C557.725 393.12 557.67 393.026 557.715 393.101V393.101Z" fill="#C5CFD6"/>
<path fill-rule="evenodd" clip-rule="evenodd" d="M557.709 393.09L557.705 393.086C557.707 393.088 557.707 393.09 557.709 393.09Z" fill="#C5CFD6"/>
<path d="M503.291 330.551H612.121C613.916 330.551 615.37 332.005 615.37 333.8V403.646C615.37 405.44 613.916 406.894 612.121 406.894H503.291C501.497 406.894 500.043 405.44 500.043 403.646V333.8C500.043 332.005 501.497 330.551 503.291 330.551Z" fill="#DDE3E9"/>
<path fill-rule="evenodd" clip-rule="evenodd" d="M572.548 352.479L605.891 406.894H539.205L572.548 352.479Z" fill="#AFB9C5"/>
<path fill-rule="evenodd" clip-rule="evenodd" d="M538.169 367.055L567.647 406.894H508.692L538.169 367.055Z" fill="#C5CFD6"/>
<path fill-rule="evenodd" clip-rule="evenodd" d="M525.626 367.098C519.571 367.098 514.662 362.19 514.662 356.134C514.662 350.079 519.571 345.17 525.626 345.17C531.682 345.17 536.591 350.079 536.591 356.134C536.591 362.19 531.682 367.098 525.626 367.098Z" fill="white"/>
<g clip-path="url(#clip0)">
<path d="M188.726 417.224H0V415.682H189.006L188.726 417.224Z" fill="#3F3D56"/>
<path d="M65.2082 394.875L54.2246 395.607L55.6891 280.646H82.782L65.2082 394.875Z" fill="#A0616A"/>
<path d="M117.929 394.875L106.945 395.607L108.41 280.646L125.932 280.65L117.929 394.875Z" fill="#A0616A"/>
<path d="M129.645 382.427C118.148 387.67 107.341 387.403 97.0544 382.984L91.5685 251.356L75.8557 381.832C64.3663 384.674 52.7532 384.662 41.0439 382.427C43.7409 362.881 55.2539 243.89 54.2243 222.066L131.11 218.405L129.645 382.427Z" fill="#2F2E41"/>
<path d="M63.2438 425C61.7297 425 60.2315 424.691 58.8414 424.091C57.4512 423.49 56.1984 422.613 55.1598 421.511C54.1213 420.409 53.3189 419.106 52.8021 417.683C52.2852 416.26 52.0647 414.746 52.1542 413.235L53.2139 395.33C57.4807 387.68 62.6597 387.649 68.6958 394.777L73.8055 410.447C74.3494 412.115 74.4905 413.887 74.2175 415.62C73.9445 417.353 73.265 418.996 72.2347 420.416C71.2044 421.836 69.8526 422.991 68.2899 423.788C66.7271 424.585 64.9979 425 63.2438 425Z" fill="#2F2E41"/>
<path d="M115.233 425C113.719 425 112.221 424.691 110.831 424.091C109.44 423.49 108.188 422.613 107.149 421.511C106.11 420.409 105.308 419.106 104.791 417.683C104.274 416.26 104.054 414.746 104.143 413.235L105.203 395.33C109.47 387.68 114.649 387.649 120.685 394.777L125.795 410.447C126.339 412.115 126.48 413.887 126.207 415.62C125.934 417.353 125.254 418.996 124.224 420.416C123.194 421.836 121.842 422.991 120.279 423.788C118.716 424.585 116.987 425 115.233 425Z" fill="#2F2E41"/>
<path d="M100.356 76.3503C112.084 76.3503 121.591 66.8431 121.591 55.1153C121.591 43.3876 112.084 33.8804 100.356 33.8804C88.6283 33.8804 79.1211 43.3876 79.1211 55.1153C79.1211 66.8431 88.6283 76.3503 100.356 76.3503Z" fill="#A0616A"/>
<path d="M99.6233 95.3885L65.208 81.4759C73.4443 77.4388 79.0364 69.9362 83.514 60.9731H98.8911C98.1576 74.6498 97.5669 88.0044 99.6233 95.3885Z" fill="#A0616A"/>
<path d="M133.307 223.531L51.2956 225.727C52.2944 186.348 50.5423 145.828 46.431 104.33C45.9699 99.6518 47.0673 94.9525 49.5524 90.9624C52.0376 86.9723 55.7714 83.915 60.1733 82.2657L68.1371 79.2793L100.356 88.0662L115.561 99.7239C117.599 101.291 119.216 103.338 120.269 105.682C121.323 108.027 121.779 110.595 121.598 113.159C119.296 146.777 124.436 184.2 133.307 223.531Z" fill="#FBC343"/>
<path d="M142.45 251.266C140.267 251.392 138.119 250.676 136.448 249.266C134.776 247.855 133.71 245.857 133.469 243.683L131.656 227.36L141.344 224.661L149.344 238.457C150.076 239.719 150.472 241.147 150.495 242.605C150.518 244.063 150.167 245.503 149.476 246.787C148.785 248.072 147.776 249.158 146.546 249.941C145.317 250.725 143.906 251.181 142.45 251.266Z" fill="#A0616A"/>
<path d="M150.88 228.656L131.842 229.388L117.197 170.809L113.536 98.3174C116.887 98.7362 120.003 100.259 122.393 102.645C124.782 105.031 126.309 108.145 126.733 111.496L133.307 163.487L150.88 228.656Z" fill="#FBC343"/>
<path opacity="0.2" d="M60.4481 119.919L59.7158 168.247L91.9344 222.433L63.377 166.782L60.4481 119.919Z" fill="black"/>
<path opacity="0.2" d="M50.7275 192.912L69.8237 225.727L63.0563 225.361L50.7275 192.912Z" fill="black"/>
<path d="M94.9599 186.526C94.069 186.527 93.2149 186.882 92.585 187.512C91.955 188.142 91.6006 188.996 91.5996 189.887V398.221C91.6007 399.112 91.955 399.966 92.585 400.596C93.2149 401.226 94.069 401.58 94.9599 401.581H310.014C310.904 401.58 311.758 401.226 312.388 400.596C313.018 399.966 313.373 399.112 313.374 398.221V189.887C313.373 188.996 313.018 188.142 312.388 187.512C311.758 186.882 310.904 186.527 310.014 186.526L94.9599 186.526Z" fill="#E6E6E6"/>
<path d="M100.02 393.161H304.952V194.947H100.02V393.161Z" fill="white"/>
<path d="M118.273 226.525C116.905 226.525 115.793 228.485 115.793 230.893C115.793 233.302 116.905 235.261 118.273 235.261H211.739C213.107 235.261 214.219 233.302 214.219 230.893C214.219 228.485 213.107 226.525 211.739 226.525H118.273Z" fill="#E6E6E6"/>
<path d="M118.273 253.407C116.905 253.407 115.793 255.367 115.793 257.776C115.793 260.184 116.905 262.144 118.273 262.144H211.739C213.107 262.144 214.219 260.184 214.219 257.776C214.219 255.367 213.107 253.407 211.739 253.407H118.273Z" fill="#E6E6E6"/>
<path d="M118.273 279.979C116.905 279.979 115.793 281.938 115.793 284.347C115.793 286.755 116.905 288.715 118.273 288.715H211.739C213.107 288.715 214.219 286.755 214.219 284.347C214.219 281.938 213.107 279.979 211.739 279.979H118.273Z" fill="#E6E6E6"/>
<path d="M118.273 306.86C116.905 306.86 115.793 308.82 115.793 311.229C115.793 313.637 116.905 315.597 118.273 315.597H211.739C213.107 315.597 214.219 313.637 214.219 311.229C214.219 308.82 213.107 306.86 211.739 306.86H118.273Z" fill="#E6E6E6"/>
<path d="M259.092 226.812C257.933 226.812 256.822 227.273 256.003 228.092C255.184 228.911 254.724 230.022 254.724 231.181C254.724 232.339 255.184 233.45 256.003 234.27C256.822 235.089 257.933 235.549 259.092 235.549H276.565C277.724 235.549 278.835 235.089 279.654 234.27C280.473 233.45 280.933 232.339 280.933 231.181C280.933 230.022 280.473 228.911 279.654 228.092C278.835 227.273 277.724 226.812 276.565 226.812H259.092Z" fill="#E6E6E6"/>
<path d="M259.092 253.173C257.933 253.173 256.822 253.634 256.003 254.453C255.184 255.272 254.724 256.383 254.724 257.542C254.724 258.7 255.184 259.811 256.003 260.63C256.822 261.45 257.933 261.91 259.092 261.91H276.565C277.724 261.91 278.835 261.45 279.654 260.63C280.473 259.811 280.933 258.7 280.933 257.542C280.933 256.383 280.473 255.272 279.654 254.453C278.835 253.634 277.724 253.173 276.565 253.173H259.092Z" fill="#E6E6E6"/>
<path d="M259.092 279.534C257.933 279.534 256.822 279.994 256.003 280.814C255.184 281.633 254.724 282.744 254.724 283.902C254.724 285.061 255.184 286.172 256.003 286.991C256.822 287.81 257.933 288.271 259.092 288.271H276.565C277.724 288.271 278.835 287.81 279.654 286.991C280.473 286.172 280.933 285.061 280.933 283.902C280.933 282.744 280.473 281.633 279.654 280.814C278.835 279.994 277.724 279.534 276.565 279.534H259.092Z" fill="#E6E6E6"/>
<path d="M259.092 305.895C257.933 305.895 256.822 306.355 256.003 307.174C255.184 307.993 254.724 309.104 254.724 310.263C254.724 311.421 255.184 312.532 256.003 313.352C256.822 314.171 257.933 314.631 259.092 314.631H276.565C277.724 314.631 278.835 314.171 279.654 313.352C280.473 312.532 280.933 311.421 280.933 310.263C280.933 309.104 280.473 307.993 279.654 307.174C278.835 306.355 277.724 305.895 276.565 305.895H259.092Z" fill="#E6E6E6"/>
<path d="M253.767 350.096C252.291 350.096 250.875 350.682 249.831 351.726C248.788 352.77 248.201 354.186 248.201 355.662C248.201 357.138 248.788 358.554 249.831 359.598C250.875 360.642 252.291 361.228 253.767 361.228H276.032C277.508 361.228 278.924 360.642 279.968 359.598C281.011 358.554 281.598 357.138 281.598 355.662C281.598 354.186 281.011 352.77 279.968 351.726C278.924 350.682 277.508 350.096 276.032 350.096H253.767Z" fill="#FBC343"/>
<path d="M280.853 335.197H116.099V336.662H280.853V335.197Z" fill="#E6E6E6"/>
<path d="M96.9468 247.659C94.9796 248.614 92.7209 248.778 90.6361 248.118C88.5513 247.457 86.7995 246.022 85.7417 244.108L77.7979 229.733L85.7059 223.52L98.3912 233.185C99.5513 234.068 100.466 235.235 101.047 236.572C101.629 237.91 101.858 239.374 101.713 240.825C101.568 242.276 101.054 243.666 100.22 244.863C99.3856 246.059 98.2587 247.021 96.9468 247.659Z" fill="#A0616A"/>
<path d="M91.568 224.263L75.4587 233.05L38.8467 170.077L34.6276 114.701C34.1541 108.487 35.7002 102.287 39.0354 97.0233C42.3707 91.7595 47.3168 87.7136 53.1373 85.4881L57.885 83.6729L60.8139 167.148L91.568 224.263Z" fill="#FBC343"/>
<path d="M118.374 31.8088L118.61 35.3497L116.787 30.4879C112.202 27.1549 106.721 25.2756 101.056 25.0935L101.056 25.0935C97.6897 24.7581 94.2928 25.2465 91.1577 26.5164C88.0226 27.7863 85.2434 29.7996 83.0596 32.3829C80.8759 34.9661 79.3532 38.0416 78.6229 41.3444C77.8925 44.6471 77.9764 48.078 78.8672 51.3411L79.1207 54.3831L84.9786 46.3285H84.9787C87.6168 43.9364 90.8301 42.2694 94.3048 41.49C97.7796 40.7107 101.397 40.8457 104.804 41.8819C107.364 42.6629 109.825 43.7355 112.14 45.0783C115.672 47.1937 118.859 49.8379 121.591 52.9187L122.1 49.4584C125.52 43.0249 123.484 36.4939 118.374 31.8088Z" fill="#2F2E41"/>
</g>
<defs>
<clipPath id="clip0">
<rect width="313.373" height="400" fill="white" transform="translate(0 25)"/>
</clipPath>
</defs>
</svg>
